HIERARCHY
ROOT root
{
	OFFSET	0	13.1	24.9
	CHANNELS 6  Xposition Yposition Zposition Xrotation Yrotation Zrotation
	JOINT spine_1
	{
		OFFSET	0	9.99999	0
		CHANNELS 3  Xrotation Yrotation Zrotation
		JOINT spine_2
		{
			OFFSET	0	112	-10
			CHANNELS 3  Xrotation Yrotation Zrotation
			JOINT spine_3
			{
				OFFSET	0	206.5	19.3
				CHANNELS 3  Xrotation Yrotation Zrotation
				JOINT spine_4
				{
					OFFSET	0	110.4	14.6
					CHANNELS 3  Xrotation Yrotation Zrotation
					JOINT neck_1
					{
						OFFSET	0	71.8	-50.3
						CHANNELS 3  Xrotation Yrotation Zrotation
						JOINT neck_2
						{
							OFFSET	0	86.2	-25.8
							CHANNELS 3  Xrotation Yrotation Zrotation
							JOINT head_ee
							{
								OFFSET	0	179.8	-8.7
								CHANNELS 3  Xrotation Yrotation Zrotation
								End Site
								{
									OFFSET	1	0	0
								}
							}
						}
					}
					JOINT left_clavicle
					{
						OFFSET	-43.2	22.4	-70.8
						CHANNELS 3  Xrotation Yrotation Zrotation
						JOINT left_shoulder
						{
							OFFSET	-93.9	-5.79999	48.7
							CHANNELS 3  Xrotation Yrotation Zrotation
							JOINT left_elbow
							{
								OFFSET	-291.4	-30.8	15.2
								CHANNELS 3  Xrotation Yrotation Zrotation
								JOINT left_lowarm_twist
								{
									OFFSET	-110.7	-3.89999	13.6
									CHANNELS 3  Xrotation Yrotation Zrotation
									JOINT left_hand
									{
										OFFSET	-110.7	-3.89999	13.6
										CHANNELS 3  Xrotation Yrotation Zrotation
										JOINT left_ee
										{
											OFFSET	-80.8	-5.10001	12.1
											CHANNELS 3  Xrotation Yrotation Zrotation
											End Site
											{
												OFFSET	1	0	0
											}
										}
									}
								}
							}
						}
					}
					JOINT right_clavicle
					{
						OFFSET	43.2	22.4	-70.8
						CHANNELS 3  Xrotation Yrotation Zrotation
						JOINT right_shoulder
						{
							OFFSET	93.9	-5.79999	48.7
							CHANNELS 3  Xrotation Yrotation Zrotation
							JOINT right_elbow
							{
								OFFSET	291.4	-30.8	15.2
								CHANNELS 3  Xrotation Yrotation Zrotation
								JOINT right_lowarm_twist
								{
									OFFSET	110.7	-3.89999	13.6
									CHANNELS 3  Xrotation Yrotation Zrotation
									JOINT right_hand
									{
										OFFSET	110.7	-3.89999	13.6
										CHANNELS 3  Xrotation Yrotation Zrotation
										JOINT right_ee
										{
											OFFSET	80.8	-5.10001	12.1
											CHANNELS 3  Xrotation Yrotation Zrotation
											End Site
											{
												OFFSET	1	0	0
											}
										}
									}
								}
							}
						}
					}
				}
			}
		}
	}
	JOINT left_hip
	{
		OFFSET	-82.8	-127.5	0.300001
		CHANNELS 3  Xrotation Yrotation Zrotation
		JOINT left_knee
		{
			OFFSET	-28.2	-396.7	2.2
			CHANNELS 3  Xrotation Yrotation Zrotation
			JOINT left_ankle
			{
				OFFSET	-11.7	-411.3	35.4
				CHANNELS 3  Xrotation Yrotation Zrotation
				JOINT left_toes
				{
					OFFSET	0	-60	-88.6
					CHANNELS 3  Xrotation Yrotation Zrotation
					JOINT left_foot_ee
					{
						OFFSET	-22.5	-16.5	-42.2
						CHANNELS 3  Xrotation Yrotation Zrotation
						End Site
						{
							OFFSET	1	0	0
						}
					}
				}
			}
		}
	}
	JOINT right_hip
	{
		OFFSET	82.8	-127.5	0.300001
		CHANNELS 3  Xrotation Yrotation Zrotation
		JOINT right_knee
		{
			OFFSET	28.2	-396.7	2.2
			CHANNELS 3  Xrotation Yrotation Zrotation
			JOINT right_ankle
			{
				OFFSET	11.7	-411.3	35.4
				CHANNELS 3  Xrotation Yrotation Zrotation
				JOINT right_toes
				{
					OFFSET	0	-60	-88.6
					CHANNELS 3  Xrotation Yrotation Zrotation
					JOINT right_foot_ee
					{
						OFFSET	22.5	-16.5	-42.2
						CHANNELS 3  Xrotation Yrotation Zrotation
						End Site
						{
							OFFSET	1	0	0
						}
					}
				}
			}
		}
	}
}
MOTION
Frames: 6
Frame Time: 0.02
3177.02 653.055 -1669.29 -12.4935968977 42.1518771857 18.5478957661 5.03028 -0.241447 -1.99047 5.03247 -0.114325 -2.00179 5.03457 0.133942 -2.00058 5.02903 -0.183628 -1.99663 -7.88163 -3.7865 -3.77631 -7.8464 -4.38461 -4.55942 -0.0 0.0 -0.0 4.8281 16.7887 9.52185 -5.66466 34.8752 60.3546 0.539902 -14.9736 0.0709533 -3.74266 -0.146811 0.455227 1.25315 -12.2036 3.25867 -0.0 0.0 -0.0 9.1643 -2.98466 -17.81 2.58935 3.68426 -48.2371 1.54637 37.4505 -0.524204 8.50812 -0.22116 1.06333 5.23995 27.1926 -22.5089 0.0 0.0 0.0 39.6463 -0.387874 -9.46628 -1.49041 0.0584922 0.22124 -18.2464 -5.44188 2.82699 -8.02496 0.0 0.0 -0.0 0.0 -0.0 -6.62322 -14.6738 -14.6862 -4.82732 -0.168438 -0.721484 36.4579 -10.6398 4.55671 -5.01261 0.0 0.0 0.0 0.0 0.0 
3164.22264647 652.331 -1683.56904558 -12.6366984364 42.3907125841 19.0408857145 5.01202 -0.247658 -2.07235 5.0144 -0.115316 -2.0839 5.01654 0.143766 -2.08214 5.01054 -0.1868 -2.07872 -7.74809 -3.3541 -3.01907 -7.72616 -4.1053 -3.71289 -0.0 0.0 -0.0 4.61145 17.1783 9.17583 -5.45798 35.1844 60.9715 0.498495 -13.8713 0.0606396 -3.65545 -0.143052 0.44473 1.24272 -11.7655 3.37888 -0.0 0.0 -0.0 9.1275 -2.9693 -17.7377 1.88941 3.6569 -49.1073 1.51681 36.9181 -0.506339 7.40623 -0.201459 0.923954 5.50168 26.5102 -24.7537 0.0 0.0 0.0 39.6932 0.432869 -9.88876 -3.5264 0.129045 0.525722 -16.3378 -7.82753 2.55759 -5.92106 0.0 0.0 -0.0 0.0 -0.0 -7.7218 -14.9839 -14.9132 -5.15997 -0.177795 -0.771677 36.9002 -10.0176 4.59437 -4.15237 0.0 0.0 0.0 0.0 0.0 
3151.63493842 650.463 -1695.31175145 -13.1735091497 42.6390326595 20.1864634712 5.07302 -0.28649 -2.37474 5.07614 -0.134842 -2.38814 5.07902 0.159493 -2.38663 5.07113 -0.219322 -2.38188 -7.97588 -3.13795 -2.092 -7.96714 -4.37539 -2.75377 -0.0 0.0 -0.0 4.51709 17.2674 9.02704 -4.67047 37.5675 61.5203 0.46814 -13.0565 0.0535717 -3.53541 -0.137905 0.430274 1.15315 -11.1378 3.04619 -0.0 0.0 -0.0 8.9896 -3.98743 -17.4114 1.49936 3.46886 -49.3575 1.57241 37.9133 -0.540125 5.15293 -0.152843 0.640238 5.80275 26.6834 -26.7354 0.0 0.0 0.0 38.8395 0.636836 -10.1701 -3.66151 0.133343 0.546012 -17.8404 -6.01555 2.77068 -8.04988 0.0 0.0 -0.0 0.0 -0.0 -8.19857 -14.8357 -15.3113 -5.67543 -0.19172 -0.849557 41.2731 -8.71122 4.97766 -2.87261 0.0 0.0 0.0 0.0 0.0 
3151.43366623 650.463 -1695.11387314 -13.2679057234 43.0721012499 20.3252497938 5.07302 -0.28649 -2.37474 5.07614 -0.134842 -2.38814 5.07902 0.159493 -2.38663 5.07113 -0.219322 -2.38188 -7.97588 -3.13795 -2.092 -7.96714 -4.37539 -2.75377 -0.0 0.0 -0.0 4.51709 17.2674 9.02704 -4.67047 37.5675 61.5203 0.46814 -13.0565 0.0535717 -3.53541 -0.137905 0.430274 1.15315 -11.1378 3.04619 -0.0 0.0 -0.0 8.9896 -3.98743 -17.4114 1.49936 3.46886 -49.3575 1.57241 37.9133 -0.540125 5.15293 -0.152843 0.640238 5.80275 26.6834 -26.7354 0.0 0.0 0.0 38.8395 0.636836 -10.1701 -3.66151 0.133343 0.546012 -17.8404 -6.01555 2.77068 -8.04988 0.0 0.0 -0.0 0.0 -0.0 -8.19857 -14.8357 -15.3113 -5.67543 -0.19172 -0.849557 41.2731 -8.71122 4.97766 -2.87261 0.0 0.0 0.0 0.0 0.0 
3134.24536394 652.285 -1707.37181994 -12.854119623 44.5177325963 20.4827055056 5.01004 -0.353638 -2.59567 5.01377 -0.187809 -2.6129 5.01912 0.137238 -2.61604 5.00968 -0.277496 -2.60491 -7.64745 -2.77141 -1.47569 -7.64359 -4.11219 -2.05413 -0.0 0.0 -0.0 4.60154 17.3184 9.15912 -7.02343 31.3178 63.2713 0.443485 -12.3907 0.0481416 -1.01415 -0.036835 0.124272 0.931556 -9.09184 2.42888 -0.0 0.0 -0.0 8.08221 -2.78257 -15.683 0.880984 2.94343 -50.8561 1.40937 34.9192 -0.443301 8.7304 -0.22481 1.09149 5.96449 27.1611 -27.5382 0.0 0.0 0.0 39.193 0.551528 -10.8392 -7.99558 0.245692 1.20149 -14.6344 -10.2657 2.31933 -2.59949 0.0 0.0 -0.0 0.0 -0.0 -9.87811 -15.7967 -15.2048 -5.81584 -0.195391 -0.870792 35.8452 -7.54929 4.48269 -4.00788 0.0 0.0 0.0 0.0 0.0 
3108.72907887 656.097 -1727.90827438 -11.1818654394 46.0264463632 19.9074426457 4.54057 -0.572847 -2.73375 4.54464 -0.397799 -2.76463 4.56084 -0.0302191 -2.79292 4.55026 -0.47076 -2.75316 -7.14669 -3.00127 -1.47531 -7.14226 -4.51637 -2.08634 -0.0 0.0 -0.0 4.98779 16.9153 9.77296 -5.39304 33.1905 63.0875 0.382825 -10.7383 0.0359798 -0.839523 -0.0303354 0.10292 1.07368 -9.16667 3.35754 -0.0 0.0 -0.0 7.43931 -5.05176 -14.371 -0.456521 1.86039 -52.0177 1.46721 36.0079 -0.476862 7.18932 -0.197265 0.896563 6.29883 27.4648 -29.687 0.0 0.0 0.0 38.4747 1.08759 -10.9234 -14.9524 0.321603 2.26558 -8.69528 -6.943 1.34354 -3.07831 0.0 0.0 -0.0 0.0 -0.0 -10.5765 -15.923 -15.0655 -8.81639 -0.261366 -1.32647 36.8033 -4.93036 4.5703 -2.88229 0.0 0.0 0.0 0.0 0.0 
